HIERARCHY
ROOT Hips
{
	OFFSET 0.000000 0.000000 0.000000
	CHANNELS 6 Xposition Yposition Zposition Zrotation Yrotation Xrotation 
	JOINT LHipJoint
	{
		OFFSET 0.000000 0.000000 0.000000
		CHANNELS 3 Zrotation Yrotation Xrotation
		JOINT LeftUpLeg
		{
			OFFSET 1.363060 -1.794630 0.839290
			CHANNELS 3 Zrotation Yrotation Xrotation
			JOINT LeftLeg
			{
				OFFSET 2.448110 -6.726130 0.000000
				CHANNELS 3 Zrotation Yrotation Xrotation
				JOINT LeftFoot
				{
					OFFSET 2.562200 -7.039590 0.000000
					CHANNELS 3 Zrotation Yrotation Xrotation
					JOINT LeftToeBase
					{
						OFFSET 0.157640 -0.433110 2.322550
						CHANNELS 3 Zrotation Yrotation Xrotation
						End Site
						{
							OFFSET 0.000000 0.000000 0.000000
						}
					}
				}
			}
		}
	}
	JOINT RHipJoint
	{
		OFFSET 0.000000 0.000000 0.000000
		CHANNELS 3 Zrotation Yrotation Xrotation
		JOINT RightUpLeg
		{
			OFFSET -1.305520 -1.794630 0.839290
			CHANNELS 3 Zrotation Yrotation Xrotation
			JOINT RightLeg
			{
				OFFSET -2.542530 -6.985550 0.000000
				CHANNELS 3 Zrotation Yrotation Xrotation
				JOINT RightFoot
				{
					OFFSET -2.568260 -7.056230 0.000000
					CHANNELS 3 Zrotation Yrotation Xrotation
					JOINT RightToeBase
					{
						OFFSET -0.164730 -0.452590 2.363150
						CHANNELS 3 Zrotation Yrotation Xrotation
						End Site
						{
							OFFSET 0.000000 0.000000 0.000000
						}
					}
				}
			}
		}
	}
	JOINT LowerBack
	{
		OFFSET 0.000000 0.000000 0.000000
		CHANNELS 3 Zrotation Yrotation Xrotation
		JOINT Spine
		{
			OFFSET 0.028270 2.035590 -0.193380
			CHANNELS 3 Zrotation Yrotation Xrotation
			JOINT Spine1
			{
				OFFSET 0.056720 2.048850 -0.042750
				CHANNELS 3 Zrotation Yrotation Xrotation
				JOINT Neck
				{
					OFFSET 0.000000 0.000000 0.000000
					CHANNELS 3 Zrotation Yrotation Xrotation
					JOINT Neck1
					{
						OFFSET -0.054170 1.746240 0.172020
						CHANNELS 3 Zrotation Yrotation Xrotation
						JOINT Head
						{
							OFFSET 0.104070 1.761360 -0.123970
							CHANNELS 3 Zrotation Yrotation Xrotation
							End Site
							{
								OFFSET 0.000000 0.000000 0.000000
							}
						}
					}
				}
				JOINT LeftShoulder
				{
					OFFSET 0.000000 0.000000 0.000000
					CHANNELS 3 Zrotation Yrotation Xrotation
					JOINT LeftArm
					{
						OFFSET 3.362410 1.200890 -0.311210
						CHANNELS 3 Zrotation Yrotation Xrotation
						JOINT LeftForeArm
						{
							OFFSET 4.983000 -0.000000 -0.000000
							CHANNELS 3 Zrotation Yrotation Xrotation
							JOINT LeftHand
							{
								OFFSET 3.483560 -0.000000 -0.000000
								CHANNELS 3 Zrotation Yrotation Xrotation
								JOINT LeftFingerBase
								{
									OFFSET 0.000000 0.000000 0.000000
									CHANNELS 3 Zrotation Yrotation Xrotation
									JOINT LeftHandIndex1
									{
										OFFSET 0.715260 -0.000000 -0.000000
										CHANNELS 3 Zrotation Yrotation Xrotation
										End Site
										{
											OFFSET 0.000000 0.000000 0.000000
										}
									}
								}
								JOINT LThumb
								{
									OFFSET 0.000000 0.000000 0.000000
									CHANNELS 3 Zrotation Yrotation Xrotation
									End Site
									{
										OFFSET 0.000000 0.000000 0.000000
									}
								}
							}
						}
					}
				}
				JOINT RightShoulder
				{
					OFFSET 0.000000 0.000000 0.000000
					CHANNELS 3 Zrotation Yrotation Xrotation
					JOINT RightArm
					{
						OFFSET -3.136600 1.374050 -0.404650
						CHANNELS 3 Zrotation Yrotation Xrotation
						JOINT RightForeArm
						{
							OFFSET -5.241900 -0.000000 -0.000000
							CHANNELS 3 Zrotation Yrotation Xrotation
							JOINT RightHand
							{
								OFFSET -3.444170 -0.000000 -0.000000
								CHANNELS 3 Zrotation Yrotation Xrotation
								JOINT RightFingerBase
								{
									OFFSET 0.000000 0.000000 0.000000
									CHANNELS 3 Zrotation Yrotation Xrotation
									JOINT RightHandIndex1
									{
										OFFSET -0.622530 -0.000000 -0.000000
										CHANNELS 3 Zrotation Yrotation Xrotation
										End Site
										{
											OFFSET 0.000000 0.000000 0.000000
										}
									}
								}
								JOINT RThumb
								{
									OFFSET 0.000000 0.000000 0.000000
									CHANNELS 3 Zrotation Yrotation Xrotation
									End Site
									{
										OFFSET 0.000000 0.000000 0.000000
									}
								}
							}
						}
					}
				}
			}
		}
	}
}
MOTION
Frames: 11
Frame Time: 0.008333
1.904086 16.841692 4.956256 4.774795 21.667317 -0.818393 -12.095958 5.937411 -0.795725 5.654696 22.644296 12.382647 -0.006323 1.846386 23.122507 1.578393 7.152661 22.684011 2.763501 0.000000 -88.142700 8.484397 -1.151783 -1.900360 15.136156 -21.870793 -23.505131 2.118362 -0.989451 27.143009 -3.836800 -14.725498 -19.253076 -177.303300 -0.000000 -8.919800 3.556330 -5.181791 -0.788276 0.463614 -5.499028 -2.306549 -5.107305 -5.480901 2.859991 7.373984 -19.036176 -9.300912 -2.615540 -0.182320 -0.401042 0.000000 0.000000 0.000000 -1.050357 15.069826 0.791679 -35.247180 -1.504186 5.693623 -1.476471 -61.084124 -0.001540 0.978498 0.854942 0.008195 -0.117917 0.127129 -0.000000 0.000000 0.000000 0.000000 0.000000 0.000000 0.000000 14.159404 -17.732793 -0.618222 72.093337 -21.929832 -22.703329 4.494164 18.190407 0.008599 2.026423 3.026774 0.051058 0.128358 -0.031314 0.000000 0.000000 0.000000 0.000000 0.000000 0.000000 0.000000 
1.918155 16.839722 5.096307 4.658772 21.513856 -0.845680 -12.160366 5.959592 -0.682973 5.964239 22.159175 12.431430 0.069479 1.864089 23.525671 1.635187 6.832121 24.030941 2.689900 -0.000000 -88.274200 8.427809 -1.224325 -1.897949 15.274306 -21.722830 -23.015405 2.110857 -0.995831 27.315133 -3.861902 -14.775937 -19.526339 -177.206000 -0.000001 -9.646100 3.733930 -5.158427 -0.902990 0.498125 -5.488610 -2.344118 -5.131741 -5.469232 2.814060 7.430165 -19.004513 -9.315841 -2.643103 -0.184805 -0.403870 0.000000 0.000000 0.000000 -1.036091 15.107859 0.693843 -36.012557 -1.070793 6.248379 -1.417557 -62.405333 -0.000941 0.797815 0.771140 0.006289 -0.112996 0.129031 -0.000000 0.000000 0.000000 0.000000 0.000000 0.000000 0.000000 14.263700 -17.632581 -0.596655 72.123118 -21.646762 -22.606533 4.497431 18.109762 0.008493 2.119954 2.994063 0.052958 0.126984 -0.031021 0.000000 0.000000 0.000000 0.000000 0.000000 0.000000 0.000000 
1.929652 16.837869 5.235450 4.548276 21.359144 -0.862004 -12.210818 5.970470 -0.570026 6.184900 21.583861 12.430015 0.143510 1.882605 24.026112 1.701936 6.614665 25.314521 2.651300 0.000000 -87.828000 8.377521 -1.288262 -1.894256 15.406219 -21.519592 -22.480127 2.099382 -0.995756 27.434666 -3.907557 -14.899857 -19.859648 -177.080100 0.000000 -10.297800 3.883311 -5.133271 -1.007866 0.525080 -5.474571 -2.379348 -5.161754 -5.453595 2.767816 7.504899 -18.960028 -9.332646 -2.671346 -0.187300 -0.407201 0.000000 0.000000 0.000000 -1.008416 15.138436 0.598791 -36.804114 -0.612517 6.812878 -1.364453 -63.646216 -0.000280 0.606686 0.666942 0.004481 -0.108022 0.130737 -0.000000 0.000000 0.000000 0.000000 0.000000 0.000000 0.000000 14.384962 -17.519418 -0.573003 72.158687 -21.292650 -22.501688 4.496186 18.014938 0.008426 2.180265 2.980443 0.054357 0.125692 -0.030939 0.000000 0.000000 0.000000 0.000000 0.000000 0.000000 0.000000 
1.938486 16.836051 5.373124 4.449481 21.207920 -0.868321 -12.245483 5.969322 -0.458642 6.306723 20.919054 12.371442 0.214207 1.903165 24.644327 1.776644 6.522692 26.494646 2.663900 -0.000000 -86.684200 8.336231 -1.342237 -1.892445 15.522646 -21.276892 -21.907963 2.084186 -0.991334 27.515552 -3.969611 -15.082792 -20.243155 -176.929100 -0.000001 -10.872901 3.998911 -5.107147 -1.097989 0.543392 -5.457224 -2.411146 -5.196353 -5.434377 2.721465 7.594814 -18.902118 -9.350307 -2.699991 -0.189783 -0.410812 0.000000 0.000000 0.000000 -0.967888 15.157405 0.507910 -37.620633 -0.134299 7.384555 -1.317716 -64.789710 0.000430 0.403025 0.544488 0.002969 -0.102981 0.132187 -0.000000 0.000000 0.000000 0.000000 0.000000 0.000000 0.000000 14.519226 -17.394179 -0.547220 72.206939 -20.866520 -22.390091 4.490005 17.907846 0.008395 2.205758 2.985392 0.055159 0.124485 -0.031090 0.000000 0.000000 0.000000 0.000000 0.000000 0.000000 0.000000 
1.944664 16.834228 5.508829 4.366773 21.062568 -0.865797 -12.263694 5.955858 -0.351090 6.326129 20.173649 12.249036 0.280068 1.927009 25.395321 1.857050 6.578230 27.528895 2.743900 0.000000 -84.844200 8.305746 -1.385855 -1.895004 15.617408 -21.010371 -21.308147 2.065784 -0.984402 27.568786 -4.043087 -15.307547 -20.662187 -176.758400 -0.000000 -11.367900 4.077885 -5.080373 -1.169218 0.552545 -5.436536 -2.438691 -5.234563 -5.411631 2.674970 7.695639 -18.828412 -9.367143 -2.728975 -0.192257 -0.414309 0.000000 0.000000 0.000000 -0.916091 15.161435 0.422432 -38.461813 0.359701 7.960590 -1.277851 -65.819981 0.001177 0.186812 0.407999 0.001854 -0.097893 0.133298 -0.000000 0.000000 0.000000 0.000000 0.000000 0.000000 0.000000 14.661989 -17.255527 -0.519455 72.274008 -20.369538 -22.275381 4.478728 17.793157 0.008394 2.198521 3.005898 0.055361 0.123349 -0.031485 0.000000 0.000000 0.000000 0.000000 0.000000 0.000000 0.000000 
1.948305 16.832390 5.642152 4.302201 20.923647 -0.856129 -12.265850 5.930216 -0.250563 6.247689 19.366434 12.052320 0.339391 1.955880 26.297581 1.939575 6.790487 28.360563 2.899400 -0.000000 -82.241600 8.287041 -1.419538 -1.903631 15.687202 -20.735218 -20.691313 2.045051 -0.976595 27.604269 -4.122577 -15.554928 -21.101127 -176.574801 0.000000 -11.785500 4.119549 -5.052758 -1.218179 0.552589 -5.412097 -2.461317 -5.275076 -5.385061 2.628541 7.802597 -18.739996 -9.381811 -2.757821 -0.194691 -0.417382 0.000000 0.000000 0.000000 -0.856235 15.147946 0.343241 -39.326903 0.866843 8.536679 -1.245178 -66.724232 0.001943 -0.041878 0.264659 0.001237 -0.092783 0.133960 -0.000000 0.000000 0.000000 0.000000 0.000000 0.000000 0.000000 14.807142 -17.105362 -0.489883 72.362768 -19.800502 -22.146765 4.462304 17.674033 0.008417 2.159252 3.039671 0.054963 0.122283 -0.032113 0.000000 0.000000 0.000000 0.000000 0.000000 0.000000 0.000000 
1.949594 16.830570 5.772758 4.255359 20.789275 -0.841044 -12.253811 5.892967 -0.160255 6.082581 18.521918 11.773341 0.391437 1.991187 27.355629 2.021691 7.167973 28.945932 3.135900 0.000000 -78.971101 8.279678 -1.444626 -1.918960 15.733250 -20.462748 -20.066281 2.023030 -0.968928 27.626337 -4.202916 -15.806828 -21.542118 -176.386300 0.000000 -12.124900 4.127035 -5.023528 -1.242787 0.544337 -5.383192 -2.478781 -5.316813 -5.354058 2.581972 7.910503 -18.634529 -9.392286 -2.786408 -0.197096 -0.419541 0.000000 0.000000 0.000000 -0.792202 15.116087 0.271108 -40.215762 1.384472 9.109245 -1.219993 -67.491650 0.002701 -0.281010 0.123245 0.001116 -0.087719 0.134047 -0.000000 0.000000 0.000000 0.000000 0.000000 0.000000 0.000000 14.948781 -16.941447 -0.458897 72.475874 -19.163131 -22.001426 4.441077 17.557721 0.008449 2.093925 3.080930 0.053964 0.121261 -0.032957 0.000000 0.000000 0.000000 0.000000 0.000000 0.000000 0.000000 
1.948782 16.828775 5.900385 4.223529 20.655507 -0.822421 -12.230329 5.845075 -0.083424 5.847650 17.669433 11.403738 0.436033 2.034293 28.569034 2.100930 7.706431 29.245178 3.448800 -0.000000 -75.117400 8.282316 -1.463057 -1.940803 15.759723 -20.201593 -19.440486 2.000977 -0.961998 27.636756 -4.279529 -16.046637 -21.969665 -176.200801 0.000000 -12.388500 4.105492 -4.991476 -1.242155 0.529062 -5.348843 -2.491083 -5.358674 -5.317752 2.535193 8.014393 -18.511340 -9.396678 -2.814450 -0.199473 -0.420321 0.000000 0.000000 0.000000 -0.729146 15.066584 0.206422 -41.127840 1.910590 9.674391 -1.202492 -68.113999 0.003424 -0.527077 -0.006773 0.001593 -0.082790 0.133428 -0.000000 0.000000 0.000000 0.000000 0.000000 0.000000 0.000000 15.080771 -16.762909 -0.427090 72.613143 -18.460645 -21.828957 4.415571 17.451485 0.008480 2.008724 3.124703 0.052468 0.120263 -0.033989 0.000000 0.000000 0.000000 0.000000 0.000000 0.000000 0.000000 
1.946199 16.827064 6.024878 4.202146 20.517244 -0.801997 -12.198817 5.787651 -0.022671 5.562315 16.838151 10.936911 0.473899 2.086035 29.928175 2.175873 8.395179 29.232807 3.825900 0.000000 -70.843800 8.292777 -1.477082 -1.968165 15.773328 -19.956913 -18.819906 1.980254 -0.955861 27.633381 -4.348702 -16.260287 -22.370491 -176.025700 0.000000 -12.578400 4.061837 -4.955048 -1.216926 0.508389 -5.307900 -2.498569 -5.399750 -5.275082 2.488064 8.110192 -18.370463 -9.393319 -2.841632 -0.201819 -0.419299 0.000000 0.000000 0.000000 -0.672115 15.001007 0.149290 -42.061426 2.444324 10.228242 -1.192683 -68.586770 0.004082 -0.775777 -0.115620 0.002569 -0.078094 0.131981 -0.000000 0.000000 0.000000 0.000000 0.000000 0.000000 0.000000 15.197792 -16.569125 -0.395141 72.772128 -17.697446 -21.615453 4.386517 17.363487 0.008501 1.911026 3.166325 0.050472 0.119269 -0.035171 0.000000 0.000000 0.000000 0.000000 0.000000 0.000000 0.000000 
1.942138 16.825505 6.146216 4.185954 20.368448 -0.780548 -12.162640 5.721642 0.021189 5.242639 16.049285 10.371677 0.506692 2.146060 31.407859 2.247309 9.226541 28.912004 4.255201 0.000000 -66.485500 8.308664 -1.488920 -1.999783 15.781108 -19.731037 -18.207438 1.962052 -0.950185 27.611278 -4.407842 -16.437741 -22.734021 -175.867400 0.000001 -12.693700 4.003214 -4.912472 -1.169307 0.483842 -5.259084 -2.501879 -5.439790 -5.224818 2.440317 8.195106 -18.209184 -9.380237 -2.868085 -0.204177 -0.415966 0.000000 0.000000 0.000000 -0.626017 14.923433 0.099754 -43.013870 2.982398 10.768933 -1.190626 -68.906045 0.004646 -1.021040 -0.195194 0.003744 -0.073761 0.129604 -0.000000 0.000000 0.000000 0.000000 0.000000 0.000000 0.000000 15.297225 -16.356236 -0.364169 72.949354 -16.882892 -21.354405 4.354904 17.305927 0.008503 1.812095 3.200629 0.048276 0.118241 -0.036473 0.000000 0.000000 0.000000 0.000000 0.000000 0.000000 0.000000 
1.936866 16.824170 6.264485 4.170071 20.202899 -0.758372 -12.124874 5.647940 0.047999 4.904485 15.320773 9.708390 0.535977 2.213477 32.981682 2.316135 10.180770 28.295602 4.715700 -0.000000 -62.282500 8.327535 -1.500573 -2.033992 15.790807 -19.523527 -17.604430 1.947447 -0.944286 27.563697 -4.455427 -16.572045 -23.054144 -175.730400 -0.000001 -12.737700 3.936310 -4.862076 -1.102411 0.456867 -5.201227 -2.501775 -5.478583 -5.165829 2.391867 8.267828 -18.027159 -9.356102 -2.893768 -0.206567 -0.409964 0.000000 0.000000 0.000000 -0.595018 14.838124 0.057564 -43.981404 3.522500 11.294632 -1.196220 -69.071015 0.005096 -1.256783 -0.238673 0.004819 -0.069907 0.126224 -0.000000 0.000000 0.000000 0.000000 0.000000 0.000000 0.000000 15.377737 -16.122761 -0.335305 73.138909 -16.024831 -21.031546 4.321666 17.289481 0.008485 1.721101 3.225249 0.046080 0.117149 -0.037858 0.000000 0.000000 0.000000 0.000000 0.000000 0.000000 0.000000 
